<?xml version="1.0" encoding="UTF-8"?>
<svg xmlns="http://www.w3.org/2000/svg" id="Layer_1" data-name="Layer 1" viewBox="0 0 24 24" fill="#71e651f2">
  <path d="m15.448,7.931l2.104,2.139-5.293,5.207c-.481.482-1.118.724-1.755.724-.641,0-1.283-.244-1.771-.732l-2.776-2.69,2.088-2.154,2.454,2.378,4.951-4.87Zm8.139,5.71l-4.059,7.564c-.594,1.107-1.745,1.795-3.005,1.795H7.496c-1.257,0-2.407-.686-3.002-1.79L.416,13.65c-.555-1.03-.556-2.26,0-3.291L4.494,2.791c.595-1.104,1.746-1.791,3.002-1.791h9.027c1.26,0,2.411.688,3.005,1.795l4.06,7.565c.551,1.026.551,2.253,0,3.28Zm-2.643-1.861l-4.06-7.566c-.07-.132-.209-.214-.361-.214H7.496c-.152,0-.291.082-.362.214l-4.079,7.568c-.075.139-.075.305,0,.444l4.078,7.561c.071.132.209.213.362.213h9.028c.152,0,.291-.082.362-.214l4.058-7.564c.075-.139.075-.303,0-.441Z"/>
</svg>
